<?xml version="1.0" encoding="UTF-8" standalone="no"?>
<!-- Created with Inkscape (http://www.inkscape.org/) -->

<svg xmlns:dc="http://purl.org/dc/elements/1.1/" xmlns:cc="http://creativecommons.org/ns#" xmlns:rdf="http://www.w3.org/1999/02/22-rdf-syntax-ns#" xmlns="http://www.w3.org/2000/svg" xmlns:sodipodi="http://sodipodi.sourceforge.net/DTD/sodipodi-0.dtd" xmlns:inkscape="http://www.inkscape.org/namespaces/inkscape" width="256mm" height="256mm" viewBox="0 0 256 255.99999" version="1.1" id="svg3829" inkscape:version="0.92.4 (5da689c313, 2019-01-14)" sodipodi:docname="artoo_stone.svg">
  <defs
     id="defs3823" />
  <sodipodi:namedview
     id="base"
     pagecolor="#ffffff"
     bordercolor="#666666"
     borderopacity="1.0"
     inkscape:pageopacity="0.0"
     inkscape:pageshadow="2"
     inkscape:zoom="0.35"
     inkscape:cx="747.69386"
     inkscape:cy="247.61175"
     inkscape:document-units="mm"
     inkscape:current-layer="layer1"
     showgrid="false"
     fit-margin-top="0"
     fit-margin-left="0"
     fit-margin-right="0"
     fit-margin-bottom="0"
     inkscape:window-width="1920"
     inkscape:window-height="1080"
     inkscape:window-x="1920"
     inkscape:window-y="0"
     inkscape:window-maximized="1" />
  <metadata
     id="metadata3826">
    <rdf:RDF>
      <cc:Work
         rdf:about="">
        <dc:format>image/svg+xml</dc:format>
        <dc:type
           rdf:resource="http://purl.org/dc/dcmitype/StillImage" />
        <dc:title></dc:title>
      </cc:Work>
    </rdf:RDF>
  </metadata>
  <g
     inkscape:label="Layer 1"
     inkscape:groupmode="layer"
     id="layer1"
     transform="translate(223.15174,41.652722)">
    <g
       transform="matrix(1.4861687,0,0,-1.4861687,-358.06986,261.70776)"
       id="g3738">
      <path
         d="m 220.96951,90.816025 -13.037,4.2309 -7.327,7.526205 -28.071,3.5738 -12.007,-5.0649 -14.861,-0.6793 -44.005,3.309 -0.195,-4.109005 10.89,-13.3328 15.274,-12.0851 13.243,-5.4508 9.04,-7.1781 17.138,-4.984 16.078,0.973 14.046,4.7922 15.141,0.5309 10.268,11.6597 19.714,13.4301 -21.329,2.8582"
         style="fill:#501d19;fill-opacity:1;fill-rule:nonzero;stroke:none;stroke-width:0.1"
         id="path22"
         inkscape:connector-curvature="0" />
      <path
         d="m 221.16451,94.925025 -13.037,4.2301 -7.327,7.526905 -28.072,3.57389 -12.006,-5.066 -14.861,-0.6778 -7.616,-7.311295 -36.584,6.510905 24.194,-19.475005 17.885,-13.8968 23.397,-7.909 15.59,1.6968 -2.2,-3.4808 1.789,-0.3781 15.055,6.1761 15.098,0.5481 10.255,9.2031 19.769,12.1809 -21.329,6.548"
         style="fill:#6d2e26;fill-opacity:1;fill-rule:nonzero;stroke:none;stroke-width:0.1"
         id="path24"
         inkscape:connector-curvature="0" />
      <path
         d="m 252.43451,150.22992 -34.874,10.193 -48.073,6.12 -20.561,-8.674 -25.45,-1.162 -29.340002,-12.729 v -9.941 l -3.354,-18.365 v -7.625 l 17.926002,-12.885995 5.771,-12.0699 43.225,-13.682 49.028,1.9371 15.459,11.6816 23.806,5.2571 17.038,26.565195 v 7.625 l -10.601,11.4479 v 16.307"
         style="fill:#a95d57;fill-opacity:1;fill-rule:nonzero;stroke:none;stroke-width:0.1"
         id="path26"
         inkscape:connector-curvature="0" />
      <path
         d="m 263.03751,122.47772 -17.041,-26.571795 -23.806,-5.2559 -15.459,-11.6769 -49.027,-1.9411 -43.221,13.6848 -5.773,14.385195 -17.924002,10.56991 1.791,2.882 1.249,2.0149 5.556,8.9543 -5.248,14.4528 16.301002,10.15299 13.043,12.51901 25.447,1.16599 20.565,8.671 48.069,-6.12199 12.553,-12.886 22.322,-7.247 -1.474,-14.717 12.077,-13.0352"
         style="fill:#678c29;fill-opacity:1;fill-rule:nonzero;stroke:none;stroke-width:0.1"
         id="path28"
         inkscape:connector-curvature="0" />
      <path
         d="m 263.03751,122.47772 -17.041,-26.571795 -23.806,-5.2559 -15.459,-11.6769 -49.027,-1.9411 -43.221,13.6848 -5.773,14.385195 -17.924002,10.56991 1.791,2.882 1.249,2.0149 5.556,8.9543 -5.248,14.4528 16.301002,10.15299 13.043,12.51901 25.447,1.16599 20.565,8.671 48.069,-6.12199 12.553,-12.886 22.322,-7.247 -1.474,-14.717 12.077,-13.0352"
         style="fill:#678c29;fill-opacity:1;fill-rule:nonzero;stroke:none;stroke-width:0.1"
         id="path30"
         inkscape:connector-curvature="0" />
      <path
         d="m 239.33851,124.20273 -13.833,-21.5679 -19.323,-4.266805 -12.549,-9.4781 -39.796,-1.5758 -35.083,11.109 -4.686,11.676905 -14.550002,8.5789 1.454002,2.3399 1.014,1.6351 4.51,7.26919 -4.26,11.7298 13.232,8.242 10.588,10.162 20.655,0.947 16.693,7.03801 39.019,-4.969 10.189,-10.46 18.12,-5.882 -1.197,-11.94701 9.803,-10.58119"
         style="fill:#6d9b2d;fill-opacity:1;fill-rule:nonzero;stroke:none;stroke-width:0.1"
         id="path32"
         inkscape:connector-curvature="0" />
      <path
         d="m 250.96051,135.51292 1.474,14.717 -22.322,7.247 -12.553,12.886 -48.069,6.122 -0.313,-0.133 46.203,-5.884 12.337,-12.664 21.94,-7.122 -1.45,-14.465 11.871,-12.8118 -16.749,-26.114095 -23.397,-5.166 -15.193,-11.4769 -48.185,-1.9071 -42.478,13.45 -5.673,14.137895 -17.142002,10.10821 -0.475,-0.7652 17.924002,-10.56991 5.773,-14.385195 43.221,-13.6848 49.027,1.9411 15.459,11.6769 23.806,5.2559 17.041,26.571795 -12.077,13.0352"
         style="fill:#84ae3b;fill-opacity:1;fill-rule:nonzero;stroke:none;stroke-width:0.1"
         id="path34"
         inkscape:connector-curvature="0" />
      <path
         d="m 99.142508,130.18282 0.092,0.1481 -4.981,13.718 -0.119,-0.073 5.008,-13.79311"
         style="fill:#84ae3b;fill-opacity:1;fill-rule:nonzero;stroke:none;stroke-width:0.1"
         id="path36"
         inkscape:connector-curvature="0" />
      <path
         d="m 145.28451,147.35292 -1.534,-0.078 -3.072,1.27801 -1.249,0.70399 -0.781,1.588 1.301,0.573 3.942,-0.573 1.393,-3.492"
         style="fill:#4e6a25;fill-opacity:1;fill-rule:nonzero;stroke:none;stroke-width:0.1"
         id="path292"
         inkscape:connector-curvature="0" />
      <path
         d="m 147.61151,150.05092 -2.463,1.769 -2.557,0.17001 -1.265,-0.69401 -2.161,-0.44499 2.097,-1.755 4.022,-1.743 3.333,-0.078 -0.302,1.777 -0.704,0.99899"
         style="fill:#4d414e;fill-opacity:1;fill-rule:nonzero;stroke:none;stroke-width:0.1"
         id="path294"
         inkscape:connector-curvature="0" />
      <path
         d="m 146.91451,148.76292 -0.169,-0.028 c -0.35,-0.009 -0.66,-0.257 -0.84,-0.558 -0.15,-0.253 -0.225,-0.541 -0.287,-0.832 l 0.032,-0.001 c 0.09,0.196 0.215,0.376 0.339,0.551 0.129,0.182 0.259,0.365 0.426,0.51 l 0.093,0.067 c 0.175,0.093 0.405,0.003 0.582,0.093 0.177,0.09 0.226,0.317 0.255,0.513 0.18,-0.173 0.309,-0.391 0.437,-0.606 0.102,-0.173 0.207,-0.355 0.227,-0.55599 l 0.029,-0.25601 c 0.039,-0.117 0.259,-0.40999 0.413,-0.354 0.181,0.067 -0.012,0.46 -0.01,0.612 l 0.032,0.207 -0.158,0.927 -0.664,0.942 c -0.094,0.055 -0.191,0.104 -0.291,0.147 -0.085,0.037 -0.188,0.086 -0.192,0.178 -0.343,0.05 -0.674,0.17401 -0.964,0.361 l -0.093,0.177 c -0.326,0.071 -0.635,0.211 -0.902,0.409 -0.116,0.087 -0.235,0.23301 -0.166,0.36 -0.853,0.13101 -1.722,0.16201 -2.582,0.094 l 0.042,-0.13599 0.144,-0.066 c 0.157,-0.082 0.203,-0.295 0.352,-0.39 0.092,-0.061 0.209,-0.065 0.316,-0.09 0.107,-0.025 0.223,-0.088 0.242,-0.196 l -0.024,-0.172 c -0.044,-0.167 -0.049,-0.344 -0.015,-0.51399 0.541,-0.24 1.082,-0.481 1.624,-0.72301 -0.118,-0.029 -0.23,-0.081 -0.328,-0.15199 0.278,-0.06 0.561,-0.096 0.845,-0.106 l 0.223,0.024 0.142,0.082 c 0.217,0.123 0.519,0.069 0.679,-0.12301 l 0.255,-0.075 c 0.033,-0.111 0.054,-0.258 -0.044,-0.32"
         style="fill:#655d69;fill-opacity:1;fill-rule:nonzero;stroke:none;stroke-width:0.1"
         id="path296"
         inkscape:connector-curvature="0" />
      <path
         d="m 168.88651,126.89902 c 2.612,2.777 1.874,6.3329 -2.215,8.6938 -4.975,2.873 -13.015,2.8859 -17.959,0.0332 -3.495,-2.0191 -4.494,-4.9281 -3.029,-7.4762 l -1.013,-0.4719 1.936,-4.1332 7.491,-1.6796 6.774,-2.8192 14.739,-1.0058 c 0,0 -6.083,8.1418 -6.724,8.8589"
         style="fill:#4e6a25;fill-opacity:1;fill-rule:nonzero;stroke:none;stroke-width:0.1"
         id="path580"
         inkscape:connector-curvature="0" />
      <path
         d="m 163.17451,137.07682 0.009,0.25 c 0.522,1.0222 1.019,2.6981 1.428,4.34611 -0.175,-1.94 -0.286,-3.5059 -0.286,-3.5059 0,0 -0.299,-0.8281 -1.151,-1.0902"
         style="fill:#161617;fill-opacity:1;fill-rule:nonzero;stroke:none;stroke-width:0.1"
         id="path612"
         inkscape:connector-curvature="0" />
      <path
         d="m 163.18351,137.32682 0.186,4.8721 0.256,3.343 c 0.538,0.229 1.092,0.521 1.484,0.73901 v 0 c -0.191,-1.395 -0.364,-3.113 -0.498,-4.608 v 0 c -0.409,-1.64801 -0.906,-3.32391 -1.428,-4.34611"
         style="fill:#791722;fill-opacity:1;fill-rule:nonzero;stroke:none;stroke-width:0.1"
         id="path616"
         inkscape:connector-curvature="0" />
      <path
         d="m 188.97151,123.42793 -3.705,-1.291 -7.035,-4.5179 -5.132,0.7968 -8.175,1.5063 -4.406,3.3539 -2.517,1.9121 -1.028,3.97699 3.474,5.0347 c 0,0 0.621,3.8641 0.526,4.2071 -0.096,0.3351 1.832,1.45 1.832,1.45 l 0.319,2.972 0.956,2.972 2.04,1.689 0.326,0.272 0.183,0.756 0.009,0.008 0.039,0.183 0.335,1.371 2.136,1.362 3.864,0.454 4.406,-1.139 1.84,-0.773 1.61,-2.678 0.359,-1.967 1.147,-2.096 0.868,-2.111 1.618,-4.2149 3.362,-6.5492 0.749,-6.9399"
         style="fill:#5b545f;fill-opacity:1;fill-rule:nonzero;stroke:none;stroke-width:0.1"
         id="path634"
         inkscape:connector-curvature="0" />
      <path
         d="m 186.20651,123.54473 -1.743,0.9372 c 0,0 -1.643,-0.05 -2.315,-0.05 -0.673,0 -2.316,0.7968 -2.391,0.8468 l -0.722,1.2203 -0.996,1.3938 v 3.3621 l -1.444,1.59219 -1.519,2.7148 0.212,3.2621 -1.624,4.5189 9.081,-10.0798 3.461,-9.71839"
         style="fill:#4d414e;fill-opacity:1;fill-rule:nonzero;stroke:none;stroke-width:0.1"
         id="path636"
         inkscape:connector-curvature="0" />
      <path
         d="m 187.92251,130.95182 -1.517,7.6761 -0.896,-0.87099 0.653,-3.375 0.243,-2.23091 1.345,-1.8922 0.299,-0.8219 -0.127,1.5149"
         style="fill:#4d414e;fill-opacity:1;fill-rule:nonzero;stroke:none;stroke-width:0.1"
         id="path638"
         inkscape:connector-curvature="0" />
      <path
         d="m 171.76951,139.59592 c 0,0 -1.881,-3.2371 -2.014,-3.4359 -0.131,-0.1992 -0.829,-0.9461 -0.281,-2.4891 0.548,-1.5441 -1.394,-6.02689 -1.394,-6.02689 l -2.659,-3.78401 v -3.03789 l -0.248,-0.9461 11.088,-1.95001 -1.882,7.1789 -0.808,4.6762 0.808,3.9879 -1.771,7.6189 v 2.59 l -2.129,-1.892 1.29,-2.49"
         style="fill:#4d414e;fill-opacity:1;fill-rule:nonzero;stroke:none;stroke-width:0.1"
         id="path640"
         inkscape:connector-curvature="0" />
      <path
         d="m 176.87851,130.81512 -1.495,-3.7852 1.76,-2.8879 -0.882,-3.3531 -0.463,-1.1 -2.365,5.21721 0.138,4.87499 1.281,3.259 2.026,-2.22499"
         style="fill:#756b77;fill-opacity:1;fill-rule:nonzero;stroke:none;stroke-width:0.1"
         id="path642"
         inkscape:connector-curvature="0" />
      <path
         d="m 168.43051,141.09292 c 0,0 -2.31,-5.0841 -2.653,-5.2591 -0.335,-0.1758 -0.223,-1.5707 -0.358,-2.9891 -0.128,-1.41679 -2.248,-4.75579 -2.248,-4.75579 l -1.489,-1.291 -0.47,-3.37 c 0,0 -0.287,-0.064 -0.694,-0.1519 l -2.517,1.9121 -1.028,3.97699 3.474,5.0347 c 0,0 0.621,3.8641 0.526,4.2071 -0.096,0.3351 1.832,1.45 1.832,1.45 l 0.319,2.972 0.956,2.972 2.04,1.689 c -0.654,-1.784 -1.45,-5.155 -1.45,-5.155 l 1.864,-1.242 h 1.896"
         style="fill:#413742;fill-opacity:1;fill-rule:nonzero;stroke:none;stroke-width:0.1"
         id="path644"
         inkscape:connector-curvature="0" />
      <path
         d="m 173.66451,143.34292 c 0,0 3.047,-5.931 3.18,-6.2661 0.133,-0.3348 -0.268,-2.318 -0.268,-2.318 l 3.256,-3.7969 -0.57,-4.03199 5.417,-2.057 1.527,-1.3282 2.765,-0.1148 -3.495,6.16089 c 0,0 0.265,3.58211 0,4.245 -0.266,0.66401 -2.324,3.94531 -2.722,4.16401 -0.399,0.2192 -1.747,1.21529 -1.747,1.21529 l -1.407,6.53981 -0.698,-2.922 -4.249,0.732 -0.989,-0.222"
         style="fill:#756b77;fill-opacity:1;fill-rule:nonzero;stroke:none;stroke-width:0.1"
         id="path646"
         inkscape:connector-curvature="0" />
      <path
         d="m 166.81851,147.67793 -0.863,-2.45601 3.461,-2.887 4.963,2.887 2.731,-0.707 2.058,2.734 0.094,2.734 -4.883,0.787 -2.326,0.625 -3.278,-0.625 -1.359,-1.596 -0.598,-1.49599"
         style="fill:#756b77;fill-opacity:1;fill-rule:nonzero;stroke:none;stroke-width:0.1"
         id="path648"
         inkscape:connector-curvature="0" />
      <path
         d="m 170.96851,146.99293 c 0.526,0.045 0.589,0.24299 0.998,0.58799 l 0.144,0.097 0.949,17.971 -1.683,-0.373 -1.415,-18.2 c 0.332,-0.09 0.749,-0.106 1.007,-0.083"
         style="fill:#3d5c7b;fill-opacity:1;fill-rule:nonzero;stroke:none;stroke-width:0.1"
         id="path654"
         inkscape:connector-curvature="0" />
      <path
         d="m 177.73351,168.06192 c 0.035,0.666 -1.649,1.839 -2.248,1.534 -0.598,-0.304 -1.111,-1.091 -1.146,-1.757 -0.036,-0.666 0.421,-0.959 1.019,-0.655 0.599,0.305 2.34,0.212 2.375,0.878"
         style="fill:#7c6121;fill-opacity:1;fill-rule:nonzero;stroke:none;stroke-width:0.1"
         id="path656"
         inkscape:connector-curvature="0" />
      <path
         d="m 170.50651,165.88792 c 0.036,0.666 -0.421,0.959 -1.019,0.655 -0.598,-0.304 -1.112,-1.093 -1.171,-2.213 -0.035,-0.666 1.173,-1.728 1.771,-1.423 0.599,0.304 0.384,2.315 0.419,2.981"
         style="fill:#7c6121;fill-opacity:1;fill-rule:nonzero;stroke:none;stroke-width:0.1"
         id="path658"
         inkscape:connector-curvature="0" />
      <path
         d="m 175.48551,169.59593 -5.998,-3.053 -0.712,-0.74801 2.103,-1.49699 5.698,3.21999 -1.091,2.07801"
         style="fill:#7c6121;fill-opacity:1;fill-rule:nonzero;stroke:none;stroke-width:0.1"
         id="path660"
         inkscape:connector-curvature="0" />
      <path
         d="m 174.93051,175.98492 -2.723,-1.386 -0.154,-6.829 c -0.003,-0.672 0.706,-1.109 1.305,-0.804 l 0.485,0.247 c 0.222,0.113 0.37,0.33 0.394,0.578 l 0.693,8.194"
         style="fill:#1d1e1f;fill-opacity:1;fill-rule:nonzero;stroke:none;stroke-width:0.1"
         id="path662"
         inkscape:connector-curvature="0" />
      <path
         d="m 170.96851,146.99293 c 0.526,0.045 0.589,0.24299 0.998,0.58799 0.522,0.439 1.157,0.677 1.785,0.927 l 0.628,17.821 -2.638,-1.343 -1.262,-17.991 c 0.182,-0.011 0.358,-0.014 0.489,-0.002"
         style="fill:#7cb1c2;fill-opacity:1;fill-rule:nonzero;stroke:none;stroke-width:0.1"
         id="path664"
         inkscape:connector-curvature="0" />
      <path
         d="m 170.96851,146.99293 c 0.526,0.045 0.589,0.24299 0.998,0.58799 l 0.144,0.097 0.949,17.971 -1.319,-0.672 -1.261,-17.982 c 0.182,-0.011 0.358,-0.014 0.489,-0.002"
         style="fill:#8eb6e4;fill-opacity:1;fill-rule:nonzero;stroke:none;stroke-width:0.1"
         id="path666"
         inkscape:connector-curvature="0" />
      <path
         d="m 173.75151,148.50792 0.628,17.812 -1.32,-0.671 -0.949,-17.971 c 0.494,0.371 1.067,0.601 1.641,0.83"
         style="fill:#a8dbe7;fill-opacity:1;fill-rule:nonzero;stroke:none;stroke-width:0.1"
         id="path668"
         inkscape:connector-curvature="0" />
      <path
         d="m 176.69751,168.40192 -5.999,-3.054 -0.066,-1.256 5.998,3.053 0.067,1.257"
         style="fill:#989624;fill-opacity:1;fill-rule:nonzero;stroke:none;stroke-width:0.1"
         id="path670"
         inkscape:connector-curvature="0" />
      <path
         d="m 177.71651,167.74692 c 0.036,0.666 -0.421,0.959 -1.019,0.655 -0.598,-0.305 -1.112,-1.092 -1.147,-1.758 -0.035,-0.666 0.421,-0.959 1.019,-0.655 0.599,0.305 1.112,1.091 1.147,1.758"
         style="fill:#989624;fill-opacity:1;fill-rule:nonzero;stroke:none;stroke-width:0.1"
         id="path672"
         inkscape:connector-curvature="0" />
      <path
         d="m 171.71751,164.69292 c 0.036,0.667 -0.421,0.96 -1.019,0.655 -0.598,-0.304 -1.111,-1.09099 -1.147,-1.757 -0.035,-0.666 0.421,-0.96 1.02,-0.655 0.598,0.305 1.111,1.091 1.146,1.757"
         style="fill:#989624;fill-opacity:1;fill-rule:nonzero;stroke:none;stroke-width:0.1"
         id="path674"
         inkscape:connector-curvature="0" />
      <path
         d="m 175.14551,177.96292 -2.723,-1.387 c -0.011,-0.474 -0.021,-0.948 -0.032,-1.42199 -0.003,-0.13101 -0.042,-0.284 -0.024,-0.41301 0.016,-0.12 0.108,-0.223 0.185,-0.311 l 0.214,-0.185 0.237,-0.044 c 0.199,-0.011 0.402,-0.019 0.595,0.032 0.226,0.06 0.425,0.196 0.617,0.33 0.183,0.126 0.468,0.245 0.547,0.457 0.09,0.242 0.177,0.49 0.199,0.749 0.058,0.686 0.116,1.371 0.173,2.057 l 0.012,0.137"
         style="fill:#1d1e1f;fill-opacity:1;fill-rule:nonzero;stroke:none;stroke-width:0.1"
         id="path728"
         inkscape:connector-curvature="0" />
      <path
         d="m 174.74651,178.30092 -3.293,-0.746 c -0.266,-0.136 -0.199,-1.373 0.027,-1.568 l 0.412,-0.356 c 0.264,-0.227 0.639,-0.273 0.949,-0.115 l 3.182,1.619 c 0.267,0.136 0.498,1.303 0.271,1.499 l -0.599,-0.449 c -0.263,0.228 -0.639,0.274 -0.949,0.116"
         style="fill:#989624;fill-opacity:1;fill-rule:nonzero;stroke:none;stroke-width:0.1"
         id="path730"
         inkscape:connector-curvature="0" />
      <path
         d="m 174.80051,179.32492 -3.181,-1.619 c -0.267,-0.137 -0.311,-0.499 -0.085,-0.695 l 0.412,-0.35499 c 0.264,-0.228 0.639,-0.274 0.95,-0.11601 l 3.181,1.62 c 0.267,0.136 0.311,0.499 0.084,0.694 l -0.412,0.356 c -0.264,0.227 -0.639,0.273 -0.949,0.115"
         style="fill:#7c6121;fill-opacity:1;fill-rule:nonzero;stroke:none;stroke-width:0.1"
         id="path732"
         inkscape:connector-curvature="0" />
      <path
         d="m 166.63851,148.52592 0.039,0.18301 c 0.096,-0.008 0.096,-0.064 -0.039,-0.18301"
         style="fill:#756b77;fill-opacity:1;fill-rule:nonzero;stroke:none;stroke-width:0.1"
         id="path764"
         inkscape:connector-curvature="0" />
      <path
         d="m 183.44251,139.39713 0.553,-0.22621 -0.753,1.961 3.163,-2.504 c 0,0 -0.298,-1.2468 -0.149,-1.771 0.149,-0.5219 -0.094,-2.475 -0.094,-2.475 l -2.72,5.01521"
         style="fill:#756b77;fill-opacity:1;fill-rule:nonzero;stroke:none;stroke-width:0.1"
         id="path766"
         inkscape:connector-curvature="0" />
      <path
         d="m 228.26251,96.140825 h -2.883 l -2.541,0.6633 c 0,0 -1.61,0.8098 -1.742,0.8879 -0.132,0.0777 -1.616,1.2891 -1.616,1.2891 l 1.367,1.292895 2.797,0.8528 4.618,-4.985995"
         style="fill:#4e6a25;fill-opacity:1;fill-rule:nonzero;stroke:none;stroke-width:0.1"
         id="path878"
         inkscape:connector-curvature="0" />
      <path
         d="m 228.26251,96.090125 v 3.932005 l -2.694,2.3328 -2.819,-0.6789 -1.653,-2.453905 3.987,-2.7012 3.179,-0.4308"
         style="fill:#4d414e;fill-opacity:1;fill-rule:nonzero;stroke:none;stroke-width:0.1"
         id="path880"
         inkscape:connector-curvature="0" />
      <path
         d="m 228.26251,97.913125 c -0.066,0.4816 -0.118,0.966 -0.099,1.45 0.004,0.0949 0.012,0.193 0.065,0.2727 l 0.034,0.0339 v 0.352405 l -2.694,2.3328 -2.819,-0.6789 -0.222,-0.3301 -0.032,-0.182 c 0.327,0 0.655,0.001 0.982,0.001 l 0.167,-0.0383 -0.003,-0.14489 c 0.419,-0.004 0.837,-0.008 1.255,-0.0122 -0.058,-0.2097 0.386,-0.1867 0.461,-0.3929 l 0.025,-0.1899 0.188,-0.166 c 0.597,-0.285905 1.22,-0.519105 1.858,-0.696105 -0.375,0.0391 -0.76,-0.023 -1.103,-0.1789 l -0.187,-0.1691 c -0.039,-0.1539 0.143,-0.2598 0.287,-0.325 0.621,-0.2797 1.085,-0.834 1.388,-1.4438 0.199,-0.4019 0.334,-0.8312 0.449,-1.2672 v 1.7723"
         style="fill:#655d69;fill-opacity:1;fill-rule:nonzero;stroke:none;stroke-width:0.1"
         id="path882"
         inkscape:connector-curvature="0" />
      <path
         d="m 150.18451,122.14392 h -2.884 l -2.541,0.6633 c 0,0 -1.61,0.809 -1.742,0.8867 -0.132,0.0781 -1.616,1.2891 -1.616,1.2891 l 1.367,1.2929 2.796,0.8531 4.62,-4.9851"
         style="fill:#4e6a25;fill-opacity:1;fill-rule:nonzero;stroke:none;stroke-width:0.1"
         id="path884"
         inkscape:connector-curvature="0" />
      <path
         d="m 150.18451,122.09191 v 3.93211 l -2.694,2.3332 -2.82,-0.6793 -1.653,-2.4528 3.987,-2.7019 3.18,-0.4313"
         style="fill:#4d414e;fill-opacity:1;fill-rule:nonzero;stroke:none;stroke-width:0.1"
         id="path886"
         inkscape:connector-curvature="0" />
      <path
         d="m 150.18451,123.91501 c -0.066,0.482 -0.119,0.966 -0.1,1.45 0.004,0.0949 0.012,0.19411 0.064,0.273 l 0.036,0.034 v 0.352 l -2.694,2.3332 -2.82,-0.6793 -0.221,-0.3289 -0.033,-0.1828 c 0.328,7e-4 0.655,7e-4 0.982,0.002 l 0.166,-0.0391 -0.002,-0.1449 c 0.418,-0.004 0.837,-0.007 1.255,-0.0109 -0.057,-0.21129 0.387,-0.1883 0.461,-0.3942 l 0.025,-0.18899 0.188,-0.166 c 0.597,-0.286 1.22,-0.52 1.858,-0.6969 -0.375,0.0391 -0.759,-0.0231 -1.103,-0.177 l -0.187,-0.1711 c -0.04,-0.1539 0.144,-0.2601 0.288,-0.3238 0.62,-0.2812 1.084,-0.83441 1.387,-1.44411 0.2,-0.4031 0.334,-0.8321 0.45,-1.2672 v 1.7711"
         style="fill:#655d69;fill-opacity:1;fill-rule:nonzero;stroke:none;stroke-width:0.1"
         id="path888"
         inkscape:connector-curvature="0" />
      <path
         d="m 143.07351,142.80392 h -1.712 l -1.509,0.39301 -1.035,0.52699 -0.959,0.76601 0.811,0.76799 1.661,0.50601 2.743,-2.96"
         style="fill:#4e6a25;fill-opacity:1;fill-rule:nonzero;stroke:none;stroke-width:0.1"
         id="path890"
         inkscape:connector-curvature="0" />
      <path
         d="m 143.07351,142.77192 v 2.336 l -1.599,1.386 -1.675,-0.404 -0.982,-1.456 2.368,-1.605 1.888,-0.257"
         style="fill:#4d414e;fill-opacity:1;fill-rule:nonzero;stroke:none;stroke-width:0.1"
         id="path892"
         inkscape:connector-curvature="0" />
      <path
         d="m 143.07351,143.85492 c -0.038,0.28701 -0.069,0.574 -0.058,0.862 l 0.038,0.162 0.02,0.02 v 0.209 l -1.599,1.386 -1.675,-0.404 -0.131,-0.195 -0.019,-0.10899 c 0.194,9.9e-4 0.388,9.9e-4 0.583,9.9e-4 l 0.098,-0.023 -0.001,-0.085 c 0.248,-0.002 0.497,-0.005 0.745,-0.007 -0.034,-0.12601 0.229,-0.112 0.274,-0.235 l 0.014,-0.11201 0.113,-0.099 c 0.354,-0.17001 0.724,-0.308 1.103,-0.41301 -0.222,0.023 -0.451,-0.014 -0.655,-0.106 l -0.111,-0.10099 c -0.024,-0.092 0.085,-0.154 0.171,-0.193 0.368,-0.166 0.644,-0.495 0.823,-0.858 0.119,-0.238 0.199,-0.494 0.267,-0.751 v 1.051"
         style="fill:#655d69;fill-opacity:1;fill-rule:nonzero;stroke:none;stroke-width:0.1"
         id="path894"
         inkscape:connector-curvature="0" />
      <path
         d="m 217.51151,97.392025 h -1.713 l -1.509,0.3949 -1.035,0.527 -0.959,0.7648 0.812,0.7684 1.661,0.505805 2.743,-2.960905"
         style="fill:#4e6a25;fill-opacity:1;fill-rule:nonzero;stroke:none;stroke-width:0.1"
         id="path896"
         inkscape:connector-curvature="0" />
      <path
         d="m 217.51151,97.361925 v 2.3352 l -1.6,1.386695 -1.675,-0.40469 -0.982,-1.457005 2.368,-1.6043 1.889,-0.2559"
         style="fill:#4d414e;fill-opacity:1;fill-rule:nonzero;stroke:none;stroke-width:0.1"
         id="path898"
         inkscape:connector-curvature="0" />
      <path
         d="m 217.51151,98.444725 c -0.039,0.2864 -0.07,0.5731 -0.059,0.8614 l 0.038,0.1617 0.021,0.0203 v 0.209 l -1.6,1.386705 -1.675,-0.4047 -0.131,-0.19531 -0.019,-0.10779 c 0.194,0 0.388,0 0.583,7.9e-4 l 0.099,-0.0239 -0.002,-0.0859 c 0.249,-0.002 0.497,-0.004 0.746,-0.006 -0.034,-0.125 0.229,-0.11181 0.273,-0.234 l 0.015,-0.112905 0.112,-0.0981 c 0.355,-0.1699 0.724,-0.3078 1.104,-0.414 -0.223,0.0242 -0.451,-0.0137 -0.656,-0.1047 l -0.111,-0.1024 c -0.023,-0.091 0.085,-0.1539 0.171,-0.1918 0.368,-0.166 0.644,-0.4949 0.823,-0.8582 0.119,-0.2386 0.199,-0.4937 0.268,-0.7527 v 1.0527"
         style="fill:#655d69;fill-opacity:1;fill-rule:nonzero;stroke:none;stroke-width:0.1"
         id="path900"
         inkscape:connector-curvature="0" />
      <path
         d="m 191.11851,115.27293 h -3.807 l -3.54,1.46089 -0.99,0.425 1.203,1.584 3.742,0.38201 3.392,-3.8519"
         style="fill:#4e6a25;fill-opacity:1;fill-rule:nonzero;stroke:none;stroke-width:0.1"
         id="path902"
         inkscape:connector-curvature="0" />
      <path
         d="m 193.03751,119.08503 -3.58,2.7398 -3.167,-2.0668 -1.07,-2.0531 5.898,-2.432 h 4.151 l -2.232,3.8121"
         style="fill:#4d414e;fill-opacity:1;fill-rule:nonzero;stroke:none;stroke-width:0.1"
         id="path904"
         inkscape:connector-curvature="0" />
      <path
         d="m 193.03751,119.08503 -3.58,2.7398 -1.731,-1.1301 0.007,-0.006 c 0.191,-0.1211 0.43,-0.218 0.504,-0.4301 0.058,-0.1668 -0.008,-0.3488 -0.014,-0.525 -0.011,-0.284 0.133,-0.5488 0.28,-0.7918 0.194,-0.323 0.409,-0.6461 0.714,-0.868 0.479,-0.3461 1.105,-0.3929 1.695,-0.4281 -0.157,-0.1969 -0.057,-0.5078 0.14,-0.6629 0.197,-0.1551 0.458,-0.1961 0.707,-0.232 -0.193,-0.234 -0.399,-0.5281 -0.299,-0.8141 0.115,-0.33 0.543,-0.4019 0.892,-0.414 0.94,-0.0309 1.913,-0.0328 2.817,-0.25 h 0.1 l -2.232,3.8121"
         style="fill:#655d69;fill-opacity:1;fill-rule:nonzero;stroke:none;stroke-width:0.1"
         id="path906"
         inkscape:connector-curvature="0" />
      <path
         d="m 186.66851,98.019025 h -2.582 l -6.12,1.5668 -3.554,1.706195 v 1.91491 l 4.888,1.232 7.368,-6.419905"
         style="fill:#4e6a25;fill-opacity:1;fill-rule:nonzero;stroke:none;stroke-width:0.1"
         id="path908"
         inkscape:connector-curvature="0" />
      <path
         d="m 186.66851,103.68383 -1.98,2.67109 h -3.923 l -2.288,-0.816 -1.553,-2.616 -0.409,-0.9239 4.822,-2.672195 5.331,-1.3078 0.636,1.3078 -0.636,4.356995"
         style="fill:#4d414e;fill-opacity:1;fill-rule:nonzero;stroke:none;stroke-width:0.1"
         id="path910"
         inkscape:connector-curvature="0" />
      <path
         d="m 186.79651,102.80293 c -0.274,0.0961 -0.544,0.1891 -0.636,0.44889 -0.094,0.26601 0.052,0.62221 -0.159,0.80901 l -0.242,0.1203 c -0.379,0.1597 -0.632,0.5777 -0.598,0.9867 v 0.2062 l -0.135,0.186 c -0.276,0.2687 -0.557,0.5398 -0.897,0.7199 l -0.175,0.075 h -1.032 l -0.247,-0.1148 c -0.32,-0.1301 -0.678,-0.1051 -1.024,-0.1 -0.709,0.0128 -1.417,-0.0661 -2.108,-0.2211 l -0.911,-0.325 c 0.226,-0.1403 0.341,-0.4481 0.231,-0.693 0.306,-0.184 0.44,-0.5711 0.738,-0.768 0.22,-0.1461 0.496,-0.1672 0.759,-0.184 0.466,-0.0293 0.933,-0.0601 1.399,-0.0902 0.523,-0.0328 1.091,-0.0848 1.476,-0.4398 l 0.082,-0.1211 -0.025,-0.1399 c -0.113,-0.3019 -0.242,-0.6222 -0.509,-0.8019 l -0.168,-0.1274 c -0.074,-0.0918 -0.07,-0.2218 -0.063,-0.3406 l 0.036,-0.1223 0.11,-0.0527 c 0.325,-0.1184 0.369,-0.5523 0.355,-0.89801 -0.014,-0.37109 -0.029,-0.7422 -0.044,-1.113295 -0.007,-0.1867 0.02,-0.4239 0.198,-0.4789 0.203,-0.061 0.369,0.2039 0.337,0.414 -0.032,0.209 -0.169,0.389905 -0.215,0.596895 -0.048,0.21601 0.008,0.44101 0.011,0.6609 0.003,0.22111 -0.075,0.475 -0.28,0.5571 0.275,0.075 0.55,0.15111 0.826,0.22731 l 0.218,0.10389 0.095,0.20281 c 0.088,0.314 0.177,0.62729 0.265,0.94019 0.405,-0.46599 0.814,-0.9391 1.103,-1.4859 0.252,-0.48009 0.406,-1.0141 0.432,-1.556295 0.006,-0.1309 0.006,-0.268 0.061,-0.3867 0.047,-0.1012 0.128,-0.1801 0.2,-0.2652 0.165,-0.193 0.284,-0.425 0.349,-0.67 0.03,-0.1129 0.012,-0.3609 0.04,-0.5379 l 0.019,-0.005 0.636,1.3078 -0.508,3.476095"
         style="fill:#655d69;fill-opacity:1;fill-rule:nonzero;stroke:none;stroke-width:0.1"
         id="path912"
         inkscape:connector-curvature="0" />
      <path
         d="m 184.66851,115.35882 h -1.17 l -2.773,0.7102 -1.61,0.773 v 0.868 l 2.215,0.557 3.338,-2.9082"
         style="fill:#4e6a25;fill-opacity:1;fill-rule:nonzero;stroke:none;stroke-width:0.1"
         id="path914"
         inkscape:connector-curvature="0" />
      <path
         d="m 184.66851,117.92602 -0.897,1.2098 h -1.778 l -1.036,-0.3707 -0.704,-1.18399 -0.185,-0.41921 2.185,-1.21009 2.415,-0.59301 0.288,0.59301 -0.288,1.97419"
         style="fill:#4d414e;fill-opacity:1;fill-rule:nonzero;stroke:none;stroke-width:0.1"
         id="path916"
         inkscape:connector-curvature="0" />
      <path
         d="m 184.72651,117.52603 c -0.124,0.0437 -0.247,0.0859 -0.288,0.2039 -0.043,0.1199 0.024,0.282 -0.072,0.366 l -0.11,0.0551 c -0.172,0.0711 -0.287,0.2609 -0.271,0.4461 v 0.0937 l -0.061,0.0852 c -0.125,0.1211 -0.252,0.2437 -0.406,0.3258 l -0.08,0.034 h -0.467 l -0.113,-0.052 c -0.144,-0.0598 -0.307,-0.048 -0.463,-0.0449 -0.321,0.006 -0.642,-0.0301 -0.955,-0.1008 l -0.413,-0.14731 c 0.102,-0.064 0.155,-0.20189 0.104,-0.31399 0.139,-0.084 0.2,-0.259 0.335,-0.3477 0.1,-0.066 0.225,-0.075 0.344,-0.0832 0.211,-0.014 0.423,-0.0281 0.634,-0.041 0.237,-0.0148 0.494,-0.0379 0.668,-0.20001 l 0.038,-0.0539 -0.012,-0.0641 c -0.051,-0.13591 -0.109,-0.282 -0.23,-0.3629 l -0.076,-0.0582 -0.029,-0.1539 0.016,-0.0558 0.05,-0.0242 c 0.148,-0.0532 0.167,-0.25 0.161,-0.4059 -0.006,-0.168 -0.013,-0.3359 -0.02,-0.5039 l 0.09,-0.2172 c 0.092,-0.0281 0.167,0.0922 0.153,0.1871 -0.015,0.0949 -0.077,0.1758 -0.098,0.2711 -0.022,0.0977 0.004,0.1988 0.005,0.2988 0.001,0.1 -0.034,0.2149 -0.127,0.252 0.125,0.0351 0.25,0.0691 0.374,0.1031 l 0.099,0.0469 0.043,0.0922 c 0.04,0.1429 0.08,0.284 0.12,0.42579 0.184,-0.21099 0.369,-0.42499 0.5,-0.6731 0.114,-0.218 0.184,-0.4598 0.196,-0.7051 l 0.028,-0.1758 0.09,-0.1191 c 0.075,-0.0879 0.128,-0.1918 0.158,-0.3039 l 0.018,-0.2441 0.009,-0.002 0.288,0.59301 -0.23,1.5742"
         style="fill:#655d69;fill-opacity:1;fill-rule:nonzero;stroke:none;stroke-width:0.1"
         id="path918"
         inkscape:connector-curvature="0" />
      <path
         d="m 201.93651,119.91702 h -1.26 l -1.132,0.4027 -1.501,0.2332 -1.002,0.4079 -0.175,0.8863 1.177,0.1898 1.627,-0.3148 2.266,-1.8051"
         style="fill:#4e6a25;fill-opacity:1;fill-rule:nonzero;stroke:none;stroke-width:0.1"
         id="path920"
         inkscape:connector-curvature="0" />
      <path
         d="m 202.69751,120.52213 -0.212,1.01869 -0.549,0.5461 -1.203,0.2821 h -1.466 l -1.049,-0.5102 -1.05,-0.41289 0.732,-0.5308 2.032,-0.2661 2.004,-0.732 0.761,0.6051"
         style="fill:#4d414e;fill-opacity:1;fill-rule:nonzero;stroke:none;stroke-width:0.1"
         id="path922"
         inkscape:connector-curvature="0" />
      <path
         d="m 202.48551,121.54082 -0.549,0.5461 -1.203,0.2821 h -1.466 l -0.612,-0.2981 c 0.434,-0.1301 0.894,-0.173 1.345,-0.1199 l 0.118,-0.125 c 0.486,-0.077 0.973,-0.1551 1.46,-0.232 -0.177,-0.1051 -0.353,-0.209 -0.529,-0.3141 l -0.118,-0.1441 0.115,-0.13679 c 0.237,-0.1382 0.479,-0.2671 0.726,-0.3851 l 0.204,-0.15 c 0.087,-0.1418 -0.007,-0.32811 0.032,-0.48991 l 0.689,0.54811 -0.212,1.01869"
         style="fill:#655d69;fill-opacity:1;fill-rule:nonzero;stroke:none;stroke-width:0.1"
         id="path924"
         inkscape:connector-curvature="0" />
      <path
         d="m 180.78651,95.565825 h -1.26 l -1.132,0.4039 -1.501,0.2332 -1.001,0.4079 -0.176,0.8871 1.177,0.189 1.628,-0.314 2.265,-1.8071"
         style="fill:#4e6a25;fill-opacity:1;fill-rule:nonzero;stroke:none;stroke-width:0.1"
         id="path926"
         inkscape:connector-curvature="0" />
      <path
         d="m 181.54851,96.172925 -0.212,1.0179 -0.55,0.5461 -1.201,0.2821 h -1.467 l -1.049,-0.509 -1.05,-0.4153 0.732,-0.5308 2.032,-0.2641 2.003,-0.734 0.762,0.6071"
         style="fill:#4d414e;fill-opacity:1;fill-rule:nonzero;stroke:none;stroke-width:0.1"
         id="path928"
         inkscape:connector-curvature="0" />
      <path
         d="m 181.33651,97.190825 -0.55,0.5461 -1.201,0.2821 h -1.467 l -0.613,-0.2981 c 0.435,-0.1289 0.895,-0.1719 1.345,-0.1199 l 0.118,-0.125 c 0.487,-0.077 0.974,-0.1551 1.46,-0.232 -0.176,-0.1051 -0.352,-0.2102 -0.528,-0.3149 l -0.118,-0.1433 0.115,-0.1368 c 0.237,-0.1382 0.479,-0.266 0.726,-0.3851 l 0.204,-0.15 c 0.086,-0.1418 -0.007,-0.3289 0.032,-0.4891 l 0.689,0.5481 -0.212,1.0179"
         style="fill:#655d69;fill-opacity:1;fill-rule:nonzero;stroke:none;stroke-width:0.1"
         id="path930"
         inkscape:connector-curvature="0" />
      <path
         d="m 196.23151,90.608025 h -4.71 l -3.176,0.961 -3.332,1.0429 -2.655,1.5102 c 0,0 0.677,1.1808 0.833,1.632 0.156,0.4496 1.718,1.336 1.718,1.336 l 4.686,0.2078 c 0,0 8.742,-3.3309 6.636,-6.6899"
         style="fill:#4e6a25;fill-opacity:1;fill-rule:nonzero;stroke:none;stroke-width:0.1"
         id="path932"
         inkscape:connector-curvature="0" />
      <path
         d="m 185.79051,95.210825 0.82,2.182 3.232,2.118 2.188,-0.559 3.252,0.2703 3.049,-2.7102 1.22,-3.675 0.23,-1.634 -3.55,-0.5949 -3.727,1.152 -3.574,0.2031 -3.55,1.8398 0.41,1.4079"
         style="fill:#4d414e;fill-opacity:1;fill-rule:nonzero;stroke:none;stroke-width:0.1"
         id="path934"
         inkscape:connector-curvature="0" />
      <path
         d="m 199.55151,92.836925 -1.22,3.675 -3.049,2.7102 -0.519,-0.043 -0.019,-0.0312 c -0.343,-0.511 -1.109,-0.3782 -1.708,-0.2461 -0.162,0.0351 -0.325,0.0672 -0.488,0.0929 l -0.518,-0.0429 -0.616,0.157 c -0.849,0.0332 -1.702,-0.0469 -2.529,-0.2437 0.704,-0.1723 1.387,-0.4313 2.028,-0.7704 -0.53,-0.1718 -1.059,-0.3457 -1.589,-0.5187 -0.217,-0.0711 -0.444,-0.1481 -0.602,-0.3141 -0.158,-0.166 -0.217,-0.4488 -0.067,-0.6211 0.849,-0.0058 1.699,-0.0117 2.548,-0.0187 -0.16,-0.0313 -0.312,-0.1031 -0.433,-0.2121 0.613,-0.427 1.227,-0.8531 1.84,-1.2789 0.154,-0.1071 0.31,-0.2153 0.484,-0.284 0.181,-0.0711 0.377,-0.0981 0.571,-0.125 0.591,-0.0801 1.183,-0.1602 1.775,-0.2402 -0.089,-0.245 -0.178,-0.4911 -0.267,-0.736 0.864,-0.0199 1.728,-0.039 2.592,-0.059 0.139,-0.0031 0.285,-0.0078 0.406,-0.0769 0.48,-0.2762 0.61,-1.6821 1.356,-1.241 l 0.081,0.0609 -0.057,0.407"
         style="fill:#655d69;fill-opacity:1;fill-rule:nonzero;stroke:none;stroke-width:0.1"
         id="path936"
         inkscape:connector-curvature="0" />
      <path
         d="m 172.04451,115.02483 -4.407,-0.5 -2.502,0.25 c 0,0 -2.152,1.0551 -2.376,1.1071 -0.224,0.0511 -0.797,1.2109 -0.797,1.2109 0,0 1.25,1.1242 1.406,1.1793 0.156,0.0566 4.582,0 4.582,0 l 4.094,-3.2473"
         style="fill:#4e6a25;fill-opacity:1;fill-rule:nonzero;stroke:none;stroke-width:0.1"
         id="path938"
         inkscape:connector-curvature="0" />
      <path
         d="m 170.54951,119.12483 h -3.238 l -1.909,-0.99371 -1.163,-0.7774 2.74,-2.03789 3.238,-0.291 h 1.827 l 0.913,0.291 v 2.3172 l -2.408,1.4918"
         style="fill:#4d414e;fill-opacity:1;fill-rule:nonzero;stroke:none;stroke-width:0.1"
         id="path940"
         inkscape:connector-curvature="0" />
      <path
         d="m 170.51451,119.12483 h -3.203 l -0.747,-0.3898 -0.066,-0.1571 c -0.115,-0.0839 -0.269,-0.0808 -0.409,-0.1089 l -0.102,-0.034 -0.009,-0.005 c -0.099,-0.0441 -0.181,-0.12189 -0.179,-0.2262 0.858,-0.1566 1.716,-0.3156 2.574,-0.4726 -0.181,-0.041 -0.331,-0.1953 -0.369,-0.3774 -0.036,-0.1816 0.042,-0.3828 0.194,-0.4906 0.198,-0.1422 0.466,-0.116 0.708,-0.0844 0.534,0.0703 1.068,0.1422 1.602,0.21211 0.064,-0.31481 0.283,-0.57381 0.503,-0.8089 0.326,-0.3469 0.672,-0.6739 1.018,-1.002 l 0.126,-0.1199 0.739,0.2359 c -0.063,0.252 -0.177,0.477 -0.385,0.6352 -0.085,0.0648 -0.185,0.1187 -0.235,0.2117 -0.059,0.1121 -0.032,0.2461 -0.003,0.3691 0.055,0.2379 0.115,0.4828 0.261,0.6782 0.102,0.1367 0.261,0.239 0.425,0.2648 v 0.1781 l -2.381,1.47499 -0.062,0.0168"
         style="fill:#655d69;fill-opacity:1;fill-rule:nonzero;stroke:none;stroke-width:0.1"
         id="path942"
         inkscape:connector-curvature="0" />
      <path
         d="m 220.29951,103.31313 -3.871,-0.7844 -2.085,0.3922 -2.582,1.2219 c 0,0 -1.837,0.625 -1.569,0.782 0.268,0.1563 1.877,1.2492 1.877,1.2492 l 4.134,-0.2902 4.096,-2.5707"
         style="fill:#4e6a25;fill-opacity:1;fill-rule:nonzero;stroke:none;stroke-width:0.1"
         id="path944"
         inkscape:connector-curvature="0" />
      <path
         d="m 218.37951,107.27603 h -3.238 l -1.909,-0.993 -1.163,-0.7769 2.74,-2.0371 3.238,-0.2911 h 1.827 l 0.913,0.2911 v 2.316 l -2.408,1.491"
         style="fill:#4d414e;fill-opacity:1;fill-rule:nonzero;stroke:none;stroke-width:0.1"
         id="path946"
         inkscape:connector-curvature="0" />
      <path
         d="m 218.34451,107.27603 h -3.203 l -0.747,-0.3891 -0.066,-0.15701 c -0.115,-0.084 -0.269,-0.082 -0.408,-0.1102 l -0.103,-0.0316 -0.009,-0.005 c -0.099,-0.0449 -0.181,-0.123 -0.179,-0.2281 0.858,-0.157 1.716,-0.3141 2.574,-0.4711 -0.181,-0.041 -0.332,-0.1957 -0.369,-0.3769 -0.036,-0.1829 0.042,-0.3829 0.193,-0.4918 0.199,-0.1422 0.467,-0.1161 0.708,-0.084 0.535,0.0707 1.069,0.141 1.603,0.2117 0.063,-0.3149 0.283,-0.5738 0.503,-0.809 0.326,-0.3469 0.672,-0.6738 1.017,-1.0008 l 0.127,-0.1199 0.739,0.2348 c -0.063,0.2519 -0.177,0.4781 -0.385,0.6351 -0.085,0.0649 -0.186,0.1188 -0.235,0.2129 -0.059,0.1102 -0.032,0.2449 -0.003,0.368 0.055,0.2371 0.115,0.4832 0.261,0.6789 0.103,0.1359 0.26,0.2383 0.425,0.2641 v 0.1781 l -2.381,1.475 -0.062,0.016"
         style="fill:#655d69;fill-opacity:1;fill-rule:nonzero;stroke:none;stroke-width:0.1"
         id="path948"
         inkscape:connector-curvature="0" />
    </g>
  </g>
</svg>
